# xmcd CD database file
#
# Track frame offsets:
#	150
#	20235
#	45875
#	66130
#	88265
#
# Disc length: 1362 seconds
#
# Revision: 0
# Processed by: cddbd v1.5.1PL2 Copyright (c) Steve Scherf et al.
# Submitted via: CDex 1.50
#
DISCID=3b055005
DTITLE=Port Of Notes - END OF SUMER EP
DYEAR=2001
DGENRE=Pop
TTITLE0=夏風の行き着く果て(acoustic mix)
TTITLE1=Midnight Rainboe
TTITLE2=Welcome to the jungle
TTITLE3=Lilac 2001
TTITLE4=Take a long walk
EXTD=YEAR: 2001
EXTT0=
EXTT1=
EXTT2=
EXTT3=
EXTT4=
PLAYORDER=
